<svg width="180" height="180" viewBox="0 0 180 180" fill="none" xmlns="http://www.w3.org/2000/svg">
<g clip-path="url(#clip0_3_323)">
<path d="M82.5 37.5V7.5H97.5V37.5H82.5ZM132.375 58.125L122.062 47.8125L143.062 26.25L153.562 36.9375L132.375 58.125ZM142.5 97.5V82.5H172.5V97.5H142.5ZM82.5 172.5V142.5H97.5V172.5H82.5ZM47.625 57.75L26.25 36.9375L36.9375 26.4375L58.125 47.625L47.625 57.75ZM142.875 153.75L122.062 132.188L132.188 122.062L153.562 142.688L142.875 153.75ZM7.5 97.5V82.5H37.5V97.5H7.5ZM36.9375 153.75L26.4375 143.062L47.4375 122.062L52.875 127.125L58.3125 132.375L36.9375 153.75ZM90 135C77.5 135 66.875 130.625 58.125 121.875C49.375 113.125 45 102.5 45 90C45 77.5 49.375 66.875 58.125 58.125C66.875 49.375 77.5 45 90 45C102.5 45 113.125 49.375 121.875 58.125C130.625 66.875 135 77.5 135 90C135 102.5 130.625 113.125 121.875 121.875C113.125 130.625 102.5 135 90 135ZM90 120C98.25 120 105.312 117.063 111.188 111.188C117.063 105.312 120 98.25 120 90C120 81.75 117.063 74.6875 111.188 68.8125C105.312 62.9375 98.25 60 90 60C81.75 60 74.6875 62.9375 68.8125 68.8125C62.9375 74.6875 60 81.75 60 90C60 98.25 62.9375 105.312 68.8125 111.188C74.6875 117.063 81.75 120 90 120Z" fill="#FACC15"/>
</g>
<defs>
<clipPath id="clip0_3_323">
<rect width="180" height="180" fill="white"/>
</clipPath>
</defs>
</svg>
