<svg width="180" height="180" viewBox="0 0 180 180" fill="none" xmlns="http://www.w3.org/2000/svg">
<g clip-path="url(#clip0_3_328)">
<path d="M48.75 150C37.375 150 27.6562 146.062 19.5938 138.188C11.5312 130.312 7.5 120.688 7.5 109.312C7.5 99.5625 10.4375 90.875 16.3125 83.25C22.1875 75.625 29.875 70.75 39.375 68.625C42.5 57.125 48.75 47.8125 58.125 40.6875C67.5 33.5625 78.125 30 90 30C104.625 30 117.031 35.0938 127.219 45.2812C137.406 55.4687 142.5 67.875 142.5 82.5C151.125 83.5 158.281 87.2188 163.969 93.6562C169.656 100.094 172.5 107.625 172.5 116.25C172.5 125.625 169.219 133.594 162.656 140.156C156.094 146.719 148.125 150 138.75 150H48.75ZM48.75 135H138.75C144 135 148.437 133.188 152.062 129.562C155.688 125.937 157.5 121.5 157.5 116.25C157.5 111 155.688 106.563 152.062 102.938C148.437 99.3125 144 97.5 138.75 97.5H127.5V82.5C127.5 72.125 123.844 63.2812 116.531 55.9688C109.219 48.6562 100.375 45 90 45C79.625 45 70.7812 48.6562 63.4688 55.9688C56.1562 63.2812 52.5 72.125 52.5 82.5H48.75C41.5 82.5 35.3125 85.0625 30.1875 90.1875C25.0625 95.3125 22.5 101.5 22.5 108.75C22.5 116 25.0625 122.187 30.1875 127.312C35.3125 132.438 41.5 135 48.75 135Z" fill="#F4F4F5"/>
</g>
<defs>
<clipPath id="clip0_3_328">
<rect width="180" height="180" fill="white"/>
</clipPath>
</defs>
</svg>
