<svg width="180" height="180" viewBox="0 0 180 180" fill="none" xmlns="http://www.w3.org/2000/svg">
<g clip-path="url(#clip0_3_331)">
<path d="M135 142.5C132.875 142.5 131.094 141.781 129.656 140.344C128.219 138.906 127.5 137.125 127.5 135C127.5 132.875 128.219 131.094 129.656 129.656C131.094 128.219 132.875 127.5 135 127.5C137.125 127.5 138.906 128.219 140.344 129.656C141.781 131.094 142.5 132.875 142.5 135C142.5 137.125 141.781 138.906 140.344 140.344C138.906 141.781 137.125 142.5 135 142.5ZM52.5 165C50.375 165 48.5937 164.281 47.1562 162.844C45.7187 161.406 45 159.625 45 157.5C45 155.375 45.7187 153.594 47.1562 152.156C48.5937 150.719 50.375 150 52.5 150C54.625 150 56.4063 150.719 57.8438 152.156C59.2813 153.594 60 155.375 60 157.5C60 159.625 59.2813 161.406 57.8438 162.844C56.4063 164.281 54.625 165 52.5 165ZM45 142.5C42.875 142.5 41.0938 141.781 39.6563 140.344C38.2188 138.906 37.5 137.125 37.5 135C37.5 132.875 38.2188 131.094 39.6563 129.656C41.0938 128.219 42.875 127.5 45 127.5H112.5C114.625 127.5 116.406 128.219 117.844 129.656C119.281 131.094 120 132.875 120 135C120 137.125 119.281 138.906 117.844 140.344C116.406 141.781 114.625 142.5 112.5 142.5H45ZM75 165C72.875 165 71.0937 164.281 69.6562 162.844C68.2187 161.406 67.5 159.625 67.5 157.5C67.5 155.375 68.2187 153.594 69.6562 152.156C71.0937 150.719 72.875 150 75 150H127.5C129.625 150 131.406 150.719 132.844 152.156C134.281 153.594 135 155.375 135 157.5C135 159.625 134.281 161.406 132.844 162.844C131.406 164.281 129.625 165 127.5 165H75Z" fill="#A1A1AA"/>
<path d="M56.25 120C44.875 120 35.1563 115.969 27.0938 107.906C19.0313 99.8437 15 90.125 15 78.75C15 68.375 18.4375 59.3125 25.3125 51.5625C32.1875 43.8125 40.6875 39.25 50.8125 37.875C54.8125 30.75 60.2813 25.1563 67.2188 21.0938C74.1563 17.0312 81.75 15 90 15C101.25 15 111.031 18.5938 119.344 25.7812C127.656 32.9687 132.688 41.9375 134.438 52.6875C143.063 53.4375 150.313 57 156.188 63.375C162.063 69.75 165 77.375 165 86.25C165 95.625 161.719 103.594 155.156 110.156C148.594 116.719 140.625 120 131.25 120H56.25ZM56.25 105H131.25C136.5 105 140.937 103.188 144.562 99.5625C148.187 95.9375 150 91.5 150 86.25C150 81 148.187 76.5625 144.562 72.9375C140.937 69.3125 136.5 67.5 131.25 67.5H120V60C120 51.75 117.062 44.6875 111.187 38.8125C105.312 32.9375 98.25 30 90 30C84 30 78.5313 31.625 73.5938 34.875C68.6562 38.125 64.9375 42.5 62.4375 48L60.5625 52.5H55.875C48.75 52.75 42.6563 55.4062 37.5938 60.4688C32.5313 65.5313 30 71.625 30 78.75C30 86 32.5625 92.1875 37.6875 97.3125C42.8125 102.438 49 105 56.25 105Z" fill="#F4F4F5"/>
</g>
<defs>
<clipPath id="clip0_3_331">
<rect width="180" height="180" fill="white"/>
</clipPath>
</defs>
</svg>
