<svg width="180" height="180" viewBox="0 0 180 180" fill="none" xmlns="http://www.w3.org/2000/svg">
<g clip-path="url(#clip0_3_325)">
<path d="M45 142.5H78.75C81.875 142.5 84.5312 141.406 86.7188 139.219C88.9063 137.031 90 134.375 90 131.25C90 128.125 88.9375 125.469 86.8125 123.281C84.6875 121.094 82.0625 120 78.9375 120H69.375L65.625 111C63.875 106.875 61.125 103.594 57.375 101.156C53.625 98.7188 49.5 97.5 45 97.5C38.75 97.5 33.4375 99.6875 29.0625 104.062C24.6875 108.438 22.5 113.75 22.5 120C22.5 126.25 24.6875 131.562 29.0625 135.938C33.4375 140.313 38.75 142.5 45 142.5ZM45 157.5C34.625 157.5 25.7812 153.844 18.4687 146.531C11.1562 139.219 7.5 130.375 7.5 120C7.5 109.625 11.1562 100.781 18.4687 93.4688C25.7812 86.1563 34.625 82.5 45 82.5C52.5 82.5 59.3438 84.5312 65.5313 88.5938C71.7188 92.6563 76.3125 98.125 79.3125 105C86.5625 105 92.6562 107.687 97.5937 113.062C102.531 118.437 105 124.875 105 132.375C104.75 139.5 102.094 145.469 97.0312 150.281C91.9687 155.094 85.875 157.5 78.75 157.5H45Z" fill="#BFDBFE"/>
<path d="M82.5 37.5V7.5H97.5V37.5H82.5ZM132.375 58.125L121.875 47.625L143.063 26.25L153.563 36.9375L132.375 58.125ZM142.5 97.5V82.5H172.5V97.5H142.5ZM143.063 153.563L121.875 132.375L132.375 121.875L153.75 142.875L143.063 153.563ZM47.625 58.125L26.4375 36.9375L37.125 26.25L58.125 47.625L47.625 58.125ZM105 132.375C104.375 129.875 103.75 127.438 103.125 125.063C102.5 122.688 101.875 120.25 101.25 117.75C106.875 115.375 111.406 111.688 114.844 106.688C118.281 101.688 120 96.125 120 90C120 81.75 117.062 74.6875 111.187 68.8125C105.312 62.9375 98.25 60 90 60C82.5 60 75.9375 62.4375 70.3125 67.3125C64.6875 72.1875 61.375 78.375 60.375 85.875C57.875 85.25 55.3125 84.6875 52.6875 84.1875C50.0625 83.6875 47.5 83.125 45 82.5C46.75 71.5 51.9062 62.5 60.4687 55.5C69.0313 48.5 78.875 45 90 45C102.5 45 113.125 49.375 121.875 58.125C130.625 66.875 135 77.5 135 90C135 99.625 132.25 108.281 126.75 115.969C121.25 123.656 114 129.125 105 132.375Z" fill="#FACC15"/>
</g>
<defs>
<clipPath id="clip0_3_325">
<rect width="180" height="180" fill="white"/>
</clipPath>
</defs>
</svg>
