<svg width="180" height="180" viewBox="0 0 180 180" fill="none" xmlns="http://www.w3.org/2000/svg">
<g clip-path="url(#clip0_3_334)">
<path d="M56.25 119.903C44.875 119.903 35.1563 115.875 27.0938 107.82C19.0313 99.7653 15 90.0555 15 78.691C15 68.3256 18.4375 59.2715 25.3125 51.5287C32.1875 43.7859 40.6875 39.2276 50.8125 37.8538C54.8125 30.7354 60.2813 25.1469 67.2188 21.0881C74.1563 17.0294 81.75 15 90 15C101.25 15 111.031 18.5904 119.344 25.7713C127.656 32.9521 132.688 41.9126 134.438 52.6526C143.063 53.4019 150.313 56.9612 156.188 63.3303C162.063 69.6994 165 77.3173 165 86.1841C165 95.5504 161.719 103.512 155.156 110.068C148.594 116.625 140.625 119.903 131.25 119.903H56.25ZM56.25 104.917H131.25C136.5 104.917 140.937 103.106 144.562 99.4843C148.187 95.8626 150 91.4292 150 86.1841C150 80.939 148.187 76.5056 144.562 72.8839C140.937 69.2623 136.5 67.4514 131.25 67.4514H120V59.9584C120 51.716 117.062 44.66 111.187 38.7905C105.312 32.9209 98.25 29.9861 90 29.9861C84 29.9861 78.5313 31.6096 73.5938 34.8566C68.6562 38.1036 64.9375 42.4746 62.4375 47.9695L60.5625 52.4653H55.875C48.75 52.7151 42.6563 55.3689 37.5938 60.4267C32.5313 65.4845 30 71.5726 30 78.691C30 85.9343 32.5625 92.1161 37.6875 97.2364C42.8125 102.357 49 104.917 56.25 104.917Z" fill="#475569"/>
<path d="M104.625 164.112C102.75 165.111 100.844 165.267 98.9062 164.58C96.9687 163.893 95.5 162.613 94.5 160.74L83.25 138.261C82.25 136.388 82.0937 134.483 82.7812 132.547C83.4687 130.612 84.75 129.144 86.625 128.145C88.5 127.146 90.4062 126.99 92.3437 127.677C94.2812 128.364 95.75 129.644 96.75 131.517L108 153.996C109 155.87 109.156 157.774 108.469 159.71C107.781 161.646 106.5 163.113 104.625 164.112ZM149.625 164.112C147.75 165.111 145.844 165.267 143.906 164.58C141.969 163.893 140.5 162.613 139.5 160.74L128.25 138.261C127.25 136.388 127.094 134.483 127.781 132.547C128.469 130.612 129.75 129.144 131.625 128.145C133.5 127.146 135.406 126.99 137.344 127.677C139.281 128.364 140.75 129.644 141.75 131.517L153 153.996C154 155.87 154.156 157.774 153.469 159.71C152.781 161.646 151.5 163.113 149.625 164.112ZM59.625 164.112C57.75 165.111 55.8437 165.267 53.9062 164.58C51.9687 163.893 50.5 162.613 49.5 160.74L38.25 138.261C37.25 136.388 37.0937 134.483 37.7812 132.547C38.4687 130.612 39.75 129.144 41.625 128.145C43.5 127.146 45.4062 126.99 47.3437 127.677C49.2812 128.364 50.75 129.644 51.75 131.517L63 153.996C64 155.87 64.1562 157.774 63.4687 159.71C62.7812 161.646 61.5 163.113 59.625 164.112Z" fill="#BFDBFE"/>
</g>
<defs>
<clipPath id="clip0_3_334">
<rect width="180" height="180" fill="white"/>
</clipPath>
</defs>
</svg>
