<svg width="180" height="180" viewBox="0 0 180 180" fill="none" xmlns="http://www.w3.org/2000/svg">
<g clip-path="url(#clip0_3_337)">
<path d="M56.25 112.5C44.875 112.5 35.1563 108.469 27.0938 100.406C19.0313 92.3437 15 82.625 15 71.25C15 60.875 18.4375 51.8125 25.3125 44.0625C32.1875 36.3125 40.6875 31.75 50.8125 30.375C54.8125 23.25 60.2813 17.6563 67.2188 13.5938C74.1563 9.53125 81.75 7.5 90 7.5C101.25 7.5 111.031 11.0938 119.344 18.2812C127.656 25.4687 132.688 34.4375 134.438 45.1875C143.063 45.9375 150.313 49.5 156.188 55.875C162.063 62.25 165 69.875 165 78.75C165 88.125 161.719 96.0938 155.156 102.656C148.594 109.219 140.625 112.5 131.25 112.5H56.25ZM56.25 97.5H131.25C136.5 97.5 140.937 95.6875 144.562 92.0625C148.187 88.4375 150 84 150 78.75C150 73.5 148.187 69.0625 144.562 65.4375C140.937 61.8125 136.5 60 131.25 60H120V52.5C120 44.25 117.062 37.1875 111.187 31.3125C105.312 25.4375 98.25 22.5 90 22.5C84 22.5 78.5313 24.125 73.5938 27.375C68.6562 30.625 64.9375 35 62.4375 40.5L60.5625 45H55.875C48.75 45.25 42.6563 47.9062 37.5938 52.9688C32.5313 58.0313 30 64.125 30 71.25C30 78.5 32.5625 84.6875 37.6875 89.8125C42.8125 94.9375 49 97.5 56.25 97.5Z" fill="#F4F4F5"/>
<path d="M48.75 142.5C46.125 142.5 43.9062 141.594 42.0937 139.781C40.2812 137.969 39.375 135.75 39.375 133.125C39.375 130.5 40.2812 128.281 42.0937 126.469C43.9062 124.656 46.125 123.75 48.75 123.75C51.375 123.75 53.5938 124.656 55.4063 126.469C57.2188 128.281 58.125 130.5 58.125 133.125C58.125 135.75 57.2188 137.969 55.4063 139.781C53.5938 141.594 51.375 142.5 48.75 142.5ZM71.25 165C68.625 165 66.4063 164.094 64.5938 162.281C62.7813 160.469 61.875 158.25 61.875 155.625C61.875 153 62.7813 150.781 64.5938 148.969C66.4063 147.156 68.625 146.25 71.25 146.25C73.875 146.25 76.0937 147.156 77.9062 148.969C79.7187 150.781 80.625 153 80.625 155.625C80.625 158.25 79.7187 160.469 77.9062 162.281C76.0937 164.094 73.875 165 71.25 165ZM93.75 142.5C91.125 142.5 88.9063 141.594 87.0938 139.781C85.2813 137.969 84.375 135.75 84.375 133.125C84.375 130.5 85.2813 128.281 87.0938 126.469C88.9063 124.656 91.125 123.75 93.75 123.75C96.375 123.75 98.5937 124.656 100.406 126.469C102.219 128.281 103.125 130.5 103.125 133.125C103.125 135.75 102.219 137.969 100.406 139.781C98.5937 141.594 96.375 142.5 93.75 142.5ZM138.75 142.5C136.125 142.5 133.906 141.594 132.094 139.781C130.281 137.969 129.375 135.75 129.375 133.125C129.375 130.5 130.281 128.281 132.094 126.469C133.906 124.656 136.125 123.75 138.75 123.75C141.375 123.75 143.594 124.656 145.406 126.469C147.219 128.281 148.125 130.5 148.125 133.125C148.125 135.75 147.219 137.969 145.406 139.781C143.594 141.594 141.375 142.5 138.75 142.5ZM116.25 165C113.625 165 111.406 164.094 109.594 162.281C107.781 160.469 106.875 158.25 106.875 155.625C106.875 153 107.781 150.781 109.594 148.969C111.406 147.156 113.625 146.25 116.25 146.25C118.875 146.25 121.094 147.156 122.906 148.969C124.719 150.781 125.625 153 125.625 155.625C125.625 158.25 124.719 160.469 122.906 162.281C121.094 164.094 118.875 165 116.25 165Z" fill="#BFDBFE"/>
</g>
<defs>
<clipPath id="clip0_3_337">
<rect width="180" height="180" fill="white"/>
</clipPath>
</defs>
</svg>
